# xmcd
#
# Track frame offsets: 
#        150
#        928
#        20359
#        44211
#        56826
#        79057
#        99285
#        116530
#        137303
#        150100
#        176533
#        195822
#        212939
#        235420
#        256766
#        279349
#
# Disc length: 4194 seconds
#
# Revision: 1
# Processed by: cddbd v1.5.2PL0 Copyright (c) Steve Scherf et al.
# Submitted via: ExactAudioCopy v1.0b4
#
DISCID=bf106010
DTITLE=Jim Suhler and Monkey Beat - Live At The Kessler
DYEAR=2016
DGENRE=Blues
TTITLE0=Intro by Eric Nadel
TTITLE1=I Declare
TTITLE2=Across the Brazos
TTITLE3=Doin' The Best I Can
TTITLE4=Tijuana Bible
TTITLE5=My Morning Prayer
TTITLE6=Deja Blue
TTITLE7=Texassippi
TTITLE8=Reverie
TTITLE9=Sunday Drunk
TTITLE10=Devil In Me
TTITLE11=Panther Burn
TTITLE12=Scattergun
TTITLE13=Po' Lightnin'
TTITLE14=Prayin' For Rain
TTITLE15=Restless Soul
EXTD=
EXTT0=
EXTT1=
EXTT2=
EXTT3=
EXTT4=
EXTT5=
EXTT6=
EXTT7=
EXTT8=
EXTT9=
EXTT10=
EXTT11=
EXTT12=
EXTT13=
EXTT14=
EXTT15=
PLAYORDER=
